<?xml version="1.0" standalone="no"?>
<!DOCTYPE svg PUBLIC "-//W3C//DTD SVG 20010904//EN"
 "http://www.w3.org/TR/2001/REC-SVG-20010904/DTD/svg10.dtd">
<svg version="1.0" xmlns="http://www.w3.org/2000/svg"
 width="400.000000pt" height="400.000000pt" viewBox="0 0 400.000000 400.000000"
 preserveAspectRatio="xMidYMid meet">

<g transform="translate(0.000000,400.000000) scale(0.100000,-0.100000)"
fill="#000000" stroke="none">
<path d="M0 2000 l0 -2000 2000 0 2000 0 0 2000 0 2000 -2000 0 -2000 0 0
-2000z m1879 1493 c32 -82 114 -149 136 -112 4 6 13 8 21 5 8 -3 14 -1 14 5 0
6 5 9 12 7 7 -3 21 14 32 36 11 22 28 48 37 57 16 16 17 16 22 -7 5 -26 -16
-64 -29 -52 -8 9 -34 -10 -34 -24 0 -6 7 -5 15 2 20 16 19 0 -1 -28 -8 -12
-20 -19 -26 -16 -7 5 -8 2 -4 -5 5 -7 1 -20 -7 -29 -7 -9 -16 -24 -19 -32 -6
-16 43 -112 59 -117 6 -2 21 12 34 31 17 25 27 32 35 25 8 -7 14 -6 19 1 3 5
2 10 -3 10 -6 0 -10 10 -10 23 0 12 -3 33 -7 46 -6 19 -5 22 5 16 10 -6 12 -4
7 8 -3 9 -2 19 3 22 5 3 7 -8 5 -24 -3 -23 1 -31 16 -36 11 -4 23 -4 26 -1 4
3 -1 6 -10 6 -9 0 -17 4 -17 8 0 5 13 7 28 4 17 -2 33 2 41 12 7 8 20 12 28 9
12 -5 15 -2 10 10 -4 11 -1 17 7 17 8 0 21 11 30 25 9 14 23 25 30 25 8 0 16
7 20 15 11 30 26 14 26 -30 0 -25 -4 -45 -10 -45 -5 0 -10 9 -10 20 0 23 -35
28 -43 6 -4 -10 0 -12 13 -9 15 4 21 -3 29 -28 5 -19 10 -26 10 -16 1 9 6 17
11 17 13 0 13 -37 -1 -42 -6 -2 -8 -14 -3 -32 5 -20 9 -24 15 -14 6 9 9 10 9
1 0 -7 11 -20 25 -29 24 -16 27 -15 45 1 10 9 23 14 29 11 6 -4 28 5 50 19 37
23 71 33 71 20 0 -9 -25 -50 -35 -57 -6 -5 -5 -8 3 -8 7 0 12 -15 12 -40 0
-22 -2 -40 -4 -40 -14 0 -36 14 -36 22 0 6 7 8 15 4 8 -3 15 -1 15 4 0 6 -7
10 -15 10 -8 0 -15 5 -15 11 0 7 -10 9 -25 7 -14 -3 -25 -1 -25 3 0 5 -8 5
-17 2 -16 -6 -16 -5 -4 10 7 9 9 17 3 17 -17 0 -22 -29 -6 -38 11 -6 6 -11
-21 -21 l-35 -12 -1 -67 c-1 -37 -1 -70 0 -74 0 -5 -4 -8 -11 -8 -6 0 -9 -3
-6 -6 3 -3 23 4 44 15 48 26 55 26 87 1 28 -22 37 -25 37 -10 0 6 -7 10 -15
10 -8 0 -15 7 -15 16 0 8 -4 12 -10 9 -5 -3 -10 -1 -10 5 0 6 7 13 15 16 8 4
15 17 15 31 0 21 3 23 23 17 62 -19 92 -75 48 -87 -12 -3 -23 -19 -30 -43 -14
-51 -17 -78 -11 -82 3 -2 33 0 67 3 l62 8 16 52 c19 67 19 81 -1 89 -20 8 -56
-2 -66 -18 -4 -6 -6 3 -5 20 2 30 5 32 46 38 24 3 57 6 72 6 16 0 29 5 29 10
0 6 5 10 11 10 14 0 3 -51 -15 -65 -7 -5 -11 -15 -9 -22 3 -7 0 -20 -6 -30 -9
-15 -10 -14 -11 12 l0 30 -13 -25 c-7 -14 -9 -26 -5 -28 4 -2 8 -16 8 -30 0
-19 -3 -23 -9 -13 -7 11 -10 9 -16 -8 -4 -13 -4 -25 -1 -28 3 -4 6 -1 6 7 0
22 30 -10 31 -34 0 -11 3 -16 5 -10 6 14 54 5 54 -10 0 -8 2 -8 8 0 8 13 152
27 152 15 0 -13 -36 -51 -49 -51 -6 0 -10 -6 -8 -12 1 -7 -8 -14 -21 -16 -20
-3 -21 -1 -12 22 8 22 7 26 -9 26 -11 0 -22 6 -25 13 -5 10 -7 10 -12 0 -3 -7
-21 -13 -39 -13 -43 0 -65 -9 -65 -26 0 -8 -7 -17 -15 -20 -8 -4 -15 -14 -15
-23 0 -9 -5 -22 -12 -29 -19 -19 2 -30 57 -32 79 -3 80 -2 100 38 10 20 20 32
22 25 2 -7 12 -9 21 -6 12 5 11 0 -6 -24 -12 -17 -22 -38 -22 -46 0 -28 75
-61 167 -72 41 -6 45 -16 16 -41 -15 -13 -29 -19 -31 -14 -2 6 -14 10 -26 10
-32 0 -50 20 -30 34 12 9 9 11 -12 13 -17 0 -22 -2 -14 -7 23 -14 -5 -18 -54
-7 -53 12 -44 17 -108 -62 -26 -32 -23 -37 34 -56 63 -20 87 -15 113 26 23 36
64 56 76 37 12 -19 -1 -30 -18 -16 -14 11 -15 10 -9 -9 4 -13 2 -25 -6 -30 -7
-4 -21 -18 -32 -30 -15 -19 -16 -25 -6 -38 9 -11 9 -15 1 -15 -7 0 -10 -4 -7
-9 3 -5 16 -7 28 -3 16 4 19 2 13 -8 -6 -10 -4 -12 9 -7 9 4 25 1 35 -5 16
-10 17 -14 6 -25 -16 -15 -35 -17 -35 -3 0 6 -7 10 -15 10 -8 0 -15 4 -15 9 0
5 -10 11 -22 14 -22 6 -22 6 2 -14 55 -44 72 -53 79 -41 9 15 59 23 67 10 5
-7 0 -9 -14 -6 -12 4 -25 2 -28 -3 -3 -5 3 -9 14 -9 55 0 -32 -68 -110 -86
-16 -3 -28 -10 -28 -15 0 -5 8 -5 18 -2 15 6 15 5 4 -10 -12 -14 -11 -19 7
-38 28 -30 26 -42 -4 -37 -14 3 -22 1 -18 -5 3 -5 20 -7 39 -4 29 5 38 0 79
-40 26 -24 43 -48 39 -51 -4 -4 -9 -1 -11 6 -3 6 -12 12 -20 12 -9 0 -13 -6
-9 -15 7 -18 -29 -29 -78 -23 -19 2 -32 0 -30 -4 3 -4 -2 -8 -10 -8 -26 0 -18
19 15 39 28 17 29 19 13 36 -15 14 -15 18 -3 27 10 7 9 8 -7 3 -22 -6 -50 17
-40 33 3 5 -3 9 -12 10 -24 1 -105 -19 -117 -29 -5 -5 -15 -9 -22 -9 -9 0 -7
10 7 33 11 17 20 42 20 55 0 12 4 22 10 22 5 0 9 3 7 8 -1 4 3 7 8 7 6 0 9 -3
8 -7 -2 -5 2 -8 7 -8 23 0 8 33 -20 43 -16 6 -30 15 -30 19 0 4 21 -2 46 -12
25 -11 54 -20 63 -20 21 0 101 56 101 70 0 16 -103 70 -122 64 -12 -4 -18 0
-18 11 0 9 -5 13 -10 10 -8 -5 -7 -11 1 -21 9 -11 7 -15 -7 -20 -11 -4 -27
-14 -38 -23 -17 -15 -18 -15 -15 3 5 22 -62 69 -68 49 -3 -7 -12 -9 -21 -6
-14 4 -15 3 -2 -6 8 -5 24 -8 36 -5 15 4 23 0 28 -13 4 -10 2 -19 -3 -21 -6
-2 -11 -8 -11 -13 0 -6 5 -7 10 -4 7 4 9 -4 6 -22 -21 -119 -29 -160 -34 -173
-3 -8 -6 -22 -7 -30 -4 -61 -18 -139 -25 -135 -4 3 -6 -23 -3 -57 5 -74 -10
-64 -28 20 -12 51 -22 64 -32 40 -3 -8 -6 -6 -6 4 -1 10 -14 31 -31 46 -16 16
-30 34 -30 40 0 6 -11 28 -25 48 -14 20 -25 34 -25 31 0 -3 -13 8 -29 24 -29
29 -51 37 -51 20 0 -6 5 -13 11 -16 6 -4 8 -13 5 -21 -3 -8 1 -14 9 -14 8 0
15 -4 15 -10 0 -5 7 -10 16 -10 9 0 14 -5 12 -12 -3 -7 5 -22 17 -34 12 -12
41 -53 65 -92 24 -39 48 -68 54 -65 5 4 7 -3 4 -15 -4 -13 -1 -22 6 -22 16 0
32 -31 31 -60 -1 -14 -2 -42 -3 -62 -2 -37 -26 -73 -43 -63 -5 4 -6 -2 -2 -11
4 -11 8 -13 11 -6 2 7 7 12 11 12 4 0 1 -39 -6 -87 -7 -49 -17 -123 -22 -166
-15 -112 -22 -147 -32 -147 -5 0 -9 -6 -9 -13 0 -7 -6 -21 -12 -30 -11 -14
-13 13 -11 145 6 400 6 404 -13 434 -14 20 -15 29 -6 32 6 2 12 8 12 14 0 5
-8 7 -19 3 -21 -6 -34 15 -25 43 5 13 4 14 -4 3 -14 -19 -29 -3 -72 72 -17 31
-40 59 -51 62 -11 4 -98 5 -194 4 -160 -3 -175 -5 -175 -21 0 -10 -13 -32 -29
-50 -32 -35 -52 -33 -75 7 -34 60 -33 60 -227 63 -124 3 -179 0 -179 -7 0 -6
-15 -32 -33 -58 -19 -27 -55 -79 -82 -118 l-49 -70 2 -279 c1 -271 9 -333 31
-275 5 13 7 27 4 32 -2 4 -6 29 -8 55 -3 32 -1 41 5 27 5 -13 6 0 3 34 -5 40
-3 52 5 47 7 -4 12 0 13 11 0 14 2 15 6 3 10 -25 61 -70 80 -70 14 0 15 -2 4
-9 -11 -7 -9 -10 7 -15 11 -4 23 -13 26 -21 4 -12 28 -15 111 -15 58 0 105 4
105 8 0 4 14 16 31 26 22 13 29 14 24 5 -5 -8 0 -7 12 3 11 10 27 18 36 18 26
0 23 -84 -4 -111 -11 -11 -23 -36 -26 -55 -3 -18 -12 -39 -19 -45 -16 -13 -19
-49 -4 -49 12 0 45 65 55 107 3 18 11 33 16 33 6 0 9 6 7 13 -1 6 3 22 10 33
6 12 12 48 13 80 1 33 5 68 9 79 7 18 9 18 15 3 4 -9 13 -14 21 -11 16 6 16 5
16 -205 0 -96 3 -125 14 -129 8 -3 14 -11 14 -19 0 -7 -6 -11 -13 -8 -10 3
-13 -5 -12 -30 0 -23 -5 -38 -14 -41 -9 -3 -12 -3 -8 1 10 10 -12 34 -32 34
-14 0 -14 -2 -1 -10 17 -11 10 -13 -14 -4 -8 3 -12 12 -9 20 4 10 0 12 -11 8
-9 -3 -16 -1 -16 5 0 6 9 11 20 11 13 0 20 7 20 20 0 11 -4 20 -10 20 -5 0
-10 -6 -10 -13 0 -19 -40 -41 -53 -28 -6 6 -17 11 -25 11 -14 0 -244 -132
-274 -158 -10 -8 -29 -15 -42 -14 -14 0 -24 -5 -23 -10 3 -13 -162 -110 -174
-102 -13 8 -11 71 3 94 17 27 5 34 -37 19 -31 -12 -40 -11 -71 6 -86 46 -79
196 11 219 20 5 24 14 27 58 3 29 1 57 -4 62 -4 6 -8 21 -8 35 -1 23 -2 24
-11 9 -7 -12 -6 -24 1 -37 13 -26 13 -34 -2 -25 -8 5 -7 1 2 -10 13 -17 12
-18 -5 -15 -18 4 -20 14 -23 124 l-2 120 35 23 c42 27 45 27 45 4 0 -24 -19
-42 -36 -35 -9 3 -14 -2 -14 -16 0 -15 5 -21 18 -19 13 2 18 -5 20 -31 2 -19
-1 -31 -6 -27 -5 3 -12 -3 -15 -14 -3 -11 -1 -20 3 -20 5 0 11 -18 15 -40 4
-22 11 -38 16 -34 5 3 9 0 9 -5 0 -6 -4 -11 -9 -11 -11 0 -24 -81 -14 -90 4
-4 19 -11 32 -15 23 -7 23 -6 18 31 -5 28 -4 33 3 19 8 -18 9 -18 9 -2 1 10
-7 30 -16 44 -17 26 -17 27 0 20 11 -4 16 -3 12 3 -3 6 -2 10 3 10 5 0 11 -56
14 -124 2 -81 8 -129 17 -140 7 -8 9 -21 5 -27 -4 -7 -3 -9 3 -6 6 4 24 0 39
-8 42 -21 73 -19 111 11 28 21 33 31 33 66 0 29 -7 49 -22 65 -28 30 -80 31
-106 3 -19 -21 -19 -20 -24 38 -4 34 -17 80 -32 110 -19 37 -31 89 -45 184
-10 74 -15 134 -10 136 5 2 9 13 9 25 0 16 -3 18 -9 8 -10 -15 -17 15 -31 132
-5 43 -12 83 -16 88 -3 6 5 20 18 32 28 26 61 87 52 96 -3 3 -11 -2 -18 -12
-7 -9 -18 -17 -24 -17 -14 0 -25 -36 -16 -51 4 -7 1 -10 -7 -7 -8 2 -15 20
-17 39 -1 19 -14 101 -28 182 -14 81 -23 154 -21 162 3 7 1 15 -5 17 -6 2 -10
16 -10 31 0 15 -4 30 -9 33 -4 2 -5 12 -2 22 6 14 4 15 -9 4 -12 -10 -22 -7
-54 14 -30 21 -42 24 -54 15 -8 -6 -26 -16 -40 -23 -30 -14 -60 -38 -60 -48 0
-4 8 -11 18 -14 30 -11 62 -33 77 -52 10 -13 17 -15 22 -8 9 14 74 54 87 54 5
0 2 -7 -5 -17 -11 -13 -11 -17 -1 -20 13 -5 17 -24 5 -22 -21 3 -22 -4 -7 -33
10 -18 19 -44 20 -57 2 -19 -1 -22 -19 -17 -80 22 -94 20 -127 -18 -18 -20
-38 -36 -46 -36 -18 0 -7 -27 14 -35 9 -4 38 -12 64 -19 l47 -13 37 39 c43 46
55 38 47 -29 -3 -29 -1 -43 8 -43 8 0 9 -3 0 -13 -6 -8 -8 -17 -4 -20 3 -4 -3
-7 -15 -7 -31 0 -52 -10 -52 -26 0 -7 -6 -17 -12 -21 -14 -9 -38 -48 -38 -61
0 -14 116 -30 135 -19 21 11 35 -1 15 -13 -13 -8 -13 -13 -2 -31 10 -15 11
-24 3 -32 -6 -6 -11 -27 -11 -47 0 -20 -5 -41 -11 -47 -17 -17 -3 -49 15 -34
15 13 26 5 26 -21 0 -11 5 -16 10 -13 5 3 10 0 10 -8 0 -18 -13 -23 -76 -32
-27 -4 -57 -12 -67 -17 -24 -12 -34 -3 -18 16 7 9 8 16 2 20 -6 4 4 42 25 93
18 48 31 89 28 92 -3 3 -15 7 -27 8 -12 1 -59 5 -104 9 -77 6 -97 14 -74 29 6
3 16 18 24 33 8 15 24 44 35 65 11 21 26 45 33 54 11 13 10 17 -4 28 -9 6 -14
15 -10 18 3 4 2 7 -3 8 -5 0 -18 2 -29 5 -11 2 -33 5 -50 8 -16 2 -47 10 -68
18 l-38 14 25 27 c14 15 34 27 45 27 14 0 19 5 14 15 -3 10 8 27 31 47 20 17
36 36 36 42 0 15 -88 72 -151 98 -27 11 -49 25 -49 29 0 14 40 10 41 -3 0 -7
5 -4 10 7 14 29 105 78 135 72 13 -2 24 0 24 4 0 5 -5 9 -11 9 -6 0 -8 7 -5
16 10 25 -4 63 -25 69 -11 4 -32 17 -47 31 -15 13 -33 29 -40 35 -11 9 -11 13
-2 19 9 5 9 9 1 14 -6 4 -11 2 -11 -3 0 -6 -4 -11 -10 -11 -5 0 -10 6 -10 13
0 8 31 20 82 31 93 21 138 40 138 60 0 7 -11 23 -25 36 -14 13 -25 28 -25 33
0 5 -11 23 -26 39 -14 17 -23 37 -20 44 3 8 -1 14 -9 14 -8 0 -15 3 -15 8 0 4
50 6 111 6 64 -1 106 2 98 7 -11 6 -10 9 4 15 22 8 22 46 -2 92 -10 20 -28 56
-40 80 l-20 42 35 0 c19 0 42 -4 52 -9 9 -6 34 -13 55 -16 31 -5 37 -10 32
-23 -5 -14 -4 -15 6 -4 7 6 19 12 27 12 8 0 21 8 28 18 15 19 19 52 7 52 -5 0
-9 34 -10 75 -1 73 0 76 20 69 37 -10 77 -29 77 -35 0 -3 6 -6 13 -6 6 0 28
-3 48 -6 30 -6 39 -3 58 19 19 22 22 35 20 102 -1 42 2 79 6 81 4 2 33 -20 64
-48 80 -72 86 -77 103 -84 19 -7 58 35 58 62 0 11 4 22 9 25 5 3 12 22 15 41
4 19 11 35 16 35 6 0 10 9 10 20 0 29 16 25 29 -7z m305 -90 c5 -14 3 -23 -3
-23 -6 0 -11 7 -11 15 0 8 -4 15 -10 15 -13 0 -13 -6 1 -32 6 -11 8 -22 5 -25
-13 -14 -25 48 -14 73 12 26 19 22 32 -23z m486 -185 c0 -18 -2 -20 -9 -8 -6
8 -7 18 -5 22 9 14 14 9 14 -14z m510 -882 c0 -2 -7 -6 -15 -10 -8 -3 -15 -1
-15 4 0 6 7 10 15 10 8 0 15 -2 15 -4z m-325 -269 c25 -26 31 -37 23 -51 -7
-12 -16 -15 -31 -10 -22 6 -22 6 -2 -10 13 -10 15 -15 5 -13 -8 2 -12 2 -7 0
9 -6 10 -33 1 -33 -9 0 -44 41 -44 52 0 4 6 8 13 8 7 0 8 3 2 8 -15 10 -18 82
-4 82 7 0 27 -15 44 -33z m-992 -38 c15 -6 27 -16 27 -21 0 -5 9 -7 20 -3 16
5 19 3 13 -11 -4 -12 -3 -15 5 -10 7 4 12 1 12 -9 0 -8 11 -21 25 -27 14 -6
25 -18 25 -26 0 -12 5 -10 21 7 20 22 22 22 42 4 20 -18 20 -17 15 5 -4 15 -2
22 8 22 8 0 13 6 12 13 -2 6 5 11 15 11 14 -2 16 3 11 20 -5 17 -4 19 7 9 15
-15 63 -18 54 -4 -10 17 18 24 30 8 15 -21 35 -22 35 -2 0 8 7 15 15 15 8 0
15 -7 15 -15 0 -8 9 -15 20 -15 11 0 20 5 20 10 0 13 67 13 75 -1 5 -6 12 -4
21 8 13 16 13 15 4 -11 -6 -16 -8 -31 -5 -34 3 -3 5 -1 5 5 0 6 7 14 16 17 12
5 15 2 10 -10 -4 -9 -1 -23 6 -31 9 -11 9 -17 -3 -24 -10 -8 -8 -8 10 -4 16 5
21 4 17 -4 -4 -6 0 -14 9 -17 11 -5 14 -15 10 -43 -4 -29 -3 -31 4 -11 6 15 9
19 10 9 1 -9 8 -19 16 -23 8 -3 12 -12 9 -19 -3 -9 3 -16 15 -20 25 -6 38 -34
23 -49 -10 -10 -50 5 -63 24 -3 5 -12 2 -19 -7 -11 -13 -9 -15 9 -15 11 0 21
-4 21 -10 0 -5 4 -10 10 -10 12 0 50 -32 50 -42 0 -5 -19 4 -42 18 -102 65
-154 85 -172 67 -16 -16 -113 -39 -133 -32 -16 6 -22 3 -26 -12 -3 -12 -14
-19 -30 -19 -14 0 -29 -5 -33 -11 -3 -6 -17 -9 -30 -6 -13 2 -24 1 -24 -3 0
-12 -50 -30 -84 -30 -18 0 -73 14 -122 30 -49 17 -125 42 -169 56 -44 14 -87
27 -95 30 -8 3 -53 -18 -100 -47 -112 -68 -112 -68 -99 -30 6 17 8 38 5 46 -3
8 -1 15 4 15 6 0 10 9 10 19 0 11 5 21 11 23 5 2 11 18 11 36 1 40 22 61 36
36 6 -11 11 -13 16 -5 4 6 2 11 -3 11 -21 0 -11 47 14 70 14 13 25 29 25 37 0
7 9 13 20 13 12 0 20 7 20 18 0 15 14 17 128 19 75 2 138 -2 155 -8z m1095
-15 c1 -17 -2 -24 -11 -21 -6 2 -11 9 -10 15 2 6 -3 9 -11 6 -15 -6 -6 -82 12
-93 5 -3 8 -22 7 -42 -4 -47 10 -71 19 -33 5 17 3 30 -5 34 -6 4 -8 13 -4 20
5 8 12 5 23 -11 12 -17 13 -26 3 -40 -7 -12 -7 -19 -1 -19 5 0 10 5 10 10 0
20 21 9 30 -15 5 -14 14 -25 20 -25 5 0 10 -5 10 -11 0 -7 -22 -10 -62 -8 -35
2 -69 0 -76 -5 -7 -4 -29 -8 -48 -8 -19 0 -34 -3 -34 -7 0 -3 11 -37 25 -75
20 -54 22 -72 13 -83 -9 -11 -9 -17 3 -24 11 -7 10 -9 -6 -10 -16 0 -14 -3 8
-11 28 -10 37 -28 14 -28 -7 0 -22 7 -34 15 -12 8 -27 13 -35 10 -7 -3 -33 1
-58 9 -41 13 -42 14 -15 15 l30 2 -24 13 c-19 10 -21 15 -10 22 8 4 26 7 41 5
30 -3 29 0 -3 88 -9 26 -9 38 0 53 7 11 9 28 6 39 -4 11 -3 19 2 17 13 -3 143
13 143 18 0 3 -11 20 -25 38 -14 18 -25 38 -25 44 0 7 -4 12 -10 12 -5 0 -10
9 -10 20 0 11 5 20 11 20 6 0 8 -7 4 -17 -5 -14 -4 -15 6 -6 10 10 10 15 0 27
-10 11 -9 19 1 35 7 12 18 19 25 17 7 -3 15 -1 18 4 12 19 31 10 33 -16z
m-423 -143 c3 -5 1 -12 -5 -16 -5 -3 -10 1 -10 9 0 18 6 21 15 7z m227 -103
c-8 -8 -9 -4 -5 13 4 13 8 18 11 10 2 -7 -1 -18 -6 -23z m-1495 -150 c-3 -8
-6 -5 -6 6 -1 11 2 17 5 13 3 -3 4 -12 1 -19z m367 -7 c16 -6 35 -10 42 -7 8
3 16 1 19 -4 8 -12 -76 -23 -122 -16 -29 5 -43 3 -58 -11 -11 -11 -37 -20 -57
-21 -32 -2 -37 0 -31 14 4 12 3 15 -5 10 -17 -10 -15 2 2 20 8 8 32 14 53 15
21 1 49 5 63 9 30 10 55 7 94 -9z m798 -5 c7 6 24 11 38 11 24 1 24 0 -5 -13
-16 -7 -45 -11 -63 -9 -18 3 -31 2 -28 -3 2 -4 -12 -6 -32 -4 -35 5 -36 5 -12
14 14 5 35 7 48 5 12 -2 22 1 22 7 0 6 4 5 9 -3 7 -10 13 -12 23 -5z m136 -31
c-2 -20 -8 -25 -30 -25 -15 0 -30 5 -34 12 -5 8 0 9 14 6 12 -4 25 -2 28 4 4
6 -7 9 -27 8 -19 -1 -43 -2 -54 -1 -41 3 9 21 57 21 45 0 48 -2 46 -25z m-947
-59 c-7 -16 -5 -32 4 -50 13 -25 13 -26 -13 -26 -25 0 -82 44 -82 63 0 18 35
36 67 37 30 0 32 -2 24 -24z m205 -7 c24 -16 42 -34 39 -38 -6 -11 -87 -31
-125 -31 -29 0 -30 1 -16 16 19 18 21 55 4 72 -9 9 -5 12 21 12 20 0 50 -12
77 -31z m53 20 c6 9 11 10 15 2 4 -6 2 -11 -4 -11 -6 0 -8 -4 -5 -10 3 -5 2
-10 -2 -10 -12 0 -33 22 -33 35 0 5 5 3 10 -5 8 -12 11 -13 19 -1z m383 -1
c-14 -14 -16 -68 -2 -68 6 0 10 -5 10 -11 0 -14 -87 -4 -126 13 l-24 11 47 34
c28 20 59 33 77 33 23 0 27 -3 18 -12z m192 -10 c19 -21 18 -22 -13 -50 -17
-15 -42 -28 -56 -28 -26 0 -33 14 -14 26 7 4 9 21 6 40 -6 33 -5 34 26 34 21
0 39 -8 51 -22z m306 2 c13 -8 13 -10 -2 -10 -9 0 -20 5 -23 10 -8 13 5 13 25
0z m-1050 -15 c0 -8 -6 -15 -14 -15 -17 0 -28 14 -19 24 12 12 33 6 33 -9z
m610 0 c0 -8 -7 -15 -15 -15 -8 0 -15 7 -15 15 0 8 7 15 15 15 8 0 15 -7 15
-15z m463 -32 c30 -9 19 -24 -15 -21 -23 2 -34 9 -36 22 -3 15 0 17 14 11 11
-4 27 -10 37 -12z m-219 -115 c-1 -51 -5 -109 -8 -128 -5 -26 -4 -30 3 -15 9
18 10 17 10 -7 1 -16 5 -28 10 -28 5 0 12 12 14 28 2 15 4 -7 5 -48 0 -48 -2
-68 -8 -55 -21 54 -89 65 -127 21 -39 -46 -26 -114 27 -141 37 -19 145 -12
137 9 -3 7 1 20 9 31 8 10 14 33 14 51 0 18 5 36 10 39 6 3 10 16 11 28 0 21
1 21 11 -3 10 -24 10 -24 18 -5 4 11 6 23 4 26 -2 4 3 10 12 13 10 4 15 16 14
33 -3 47 0 63 11 63 6 0 10 -12 9 -27 -4 -52 0 -63 24 -69 28 -7 56 -65 56
-114 0 -73 -36 -119 -94 -120 -16 0 -17 2 -5 17 12 15 12 16 -3 10 -10 -3 -18
-2 -18 3 0 6 -9 10 -20 10 -18 0 -20 -6 -18 -67 2 -40 -1 -68 -7 -68 -6 0 -9
9 -8 20 1 11 -1 14 -3 7 -3 -6 -11 -9 -16 -6 -7 5 -8 2 -3 -5 4 -8 -6 -6 -26
5 -30 15 -32 18 -15 24 14 5 16 9 7 14 -6 4 -18 3 -26 -4 -8 -6 -16 -7 -19 -2
-9 16 16 29 54 29 19 0 29 -2 23 -4 -19 -7 -16 -20 6 -26 16 -4 19 0 19 23 -1
26 -4 28 -35 24 -22 -3 -32 -1 -28 6 3 5 1 10 -4 10 -6 0 -11 -4 -11 -9 0 -5
-11 -16 -25 -25 -24 -16 -27 -15 -65 10 -27 18 -40 34 -40 50 0 25 -15 40 -25
24 -3 -5 -1 -10 4 -10 6 0 11 -6 11 -14 0 -9 -7 -12 -21 -9 -15 4 -20 12 -17
27 3 16 -1 22 -15 23 -15 2 -16 -1 -6 -13 12 -14 -77 29 -153 75 -40 24 -43
30 -53 109 -4 28 -10 50 -14 47 -14 -8 -30 43 -25 77 4 24 1 38 -10 47 -30 25
-16 31 22 11 22 -11 44 -31 51 -43 11 -22 16 -22 119 -19 111 5 158 15 147 32
-3 5 -1 10 5 10 6 0 9 4 6 8 -3 5 11 14 30 21 25 9 34 18 34 35 0 24 9 38 20
31 4 -2 6 -46 4 -97z m203 30 c-3 -7 -5 -2 -5 12 0 14 2 19 5 13 2 -7 2 -19 0
-25z m33 -6 c0 -27 -4 -39 -15 -39 -8 0 -16 6 -19 14 -3 7 -1 13 4 13 6 0 10
11 10 25 0 14 5 25 10 25 6 0 10 -17 10 -38z m-13 -101 c12 -19 8 -31 -11 -31
-6 0 -12 11 -12 25 -2 30 7 32 23 6z m-112 -56 c2 -25 -1 -45 -6 -45 -5 0 -10
-15 -10 -32 -1 -20 -3 -26 -6 -14 -6 24 7 150 14 142 3 -3 7 -26 8 -51z m-555
-94 c0 -5 -6 -11 -13 -14 -8 -3 -14 1 -14 9 0 8 6 14 14 14 7 0 13 -4 13 -9z
m20 -21 c0 -5 -5 -10 -11 -10 -5 0 -7 5 -4 10 3 6 8 10 11 10 2 0 4 -4 4 -10z
m-743 -32 c-3 -8 -6 -5 -6 6 -1 11 2 17 5 13 3 -3 4 -12 1 -19z m87 16 c26
-10 20 -53 -9 -66 -30 -13 -43 -5 -26 16 7 8 10 20 6 26 -3 5 -3 15 0 20 7 12
8 12 29 4z m598 -16 c-7 -7 -12 -8 -12 -2 0 14 12 26 19 19 2 -3 -1 -11 -7
-17z m453 -5 c0 -12 3 -25 8 -29 4 -4 7 -11 7 -16 0 -14 -19 -9 -40 12 -17 17
-18 24 -10 41 14 25 35 20 35 -8z m-643 -340 c-6 -2 -10 -9 -6 -14 3 -5 1 -9
-5 -9 -5 0 -13 5 -17 11 -3 6 -15 9 -25 6 -11 -3 -19 -1 -19 4 0 5 19 9 43 8
23 0 36 -3 29 -6z m55 -19 c-3 -3 -12 -4 -19 -1 -8 3 -5 6 6 6 11 1 17 -2 13
-5z m-141 -39 c18 -9 57 -15 99 -15 75 0 95 -10 95 -44 0 -19 2 -18 13 4 11
21 19 25 52 23 73 -4 89 -3 95 7 4 6 17 9 30 8 16 -2 25 2 25 11 0 19 25 27
25 8 0 -10 7 -13 20 -10 11 3 30 -3 44 -14 21 -17 22 -21 8 -29 -11 -7 -13
-16 -8 -30 8 -18 8 -18 17 4 4 12 15 22 23 22 20 0 11 -58 -12 -80 -13 -13
-14 -13 -9 2 4 12 2 15 -9 11 -8 -3 -13 -13 -12 -22 2 -10 -3 -15 -14 -15 -10
1 -18 -3 -18 -9 0 -17 -32 -47 -51 -47 -10 0 -21 -9 -24 -21 -6 -18 -12 -20
-48 -14 -23 4 -64 14 -91 23 -41 13 -56 13 -90 3 -111 -34 -133 -36 -170 -16
-20 11 -36 25 -36 32 0 7 -11 13 -24 13 -16 0 -27 7 -31 20 -3 11 -12 20 -19
20 -7 0 -23 12 -37 26 -13 14 -34 30 -46 35 -13 5 -23 16 -23 24 0 9 4 14 10
10 5 -3 22 8 37 25 15 17 33 28 40 26 7 -3 13 -1 13 4 0 21 89 24 126 5z m574
-89 c0 -3 -4 -8 -10 -11 -5 -3 -10 -1 -10 4 0 6 5 11 10 11 6 0 10 -2 10 -4z"/>
<path d="M1873 3413 c-7 -3 -13 -9 -13 -14 0 -5 -11 -32 -25 -61 -24 -51 -25
-52 -6 -72 10 -12 29 -33 41 -48 30 -36 42 -35 59 5 8 17 19 42 24 54 8 18 5
30 -17 62 -16 23 -25 45 -20 52 4 7 3 10 -4 5 -6 -3 -14 0 -19 7 -4 8 -14 12
-20 10z"/>
<path d="M1595 3361 c14 -14 6 -93 -8 -84 -7 4 -8 0 -4 -11 4 -10 7 -26 7 -36
0 -10 16 -28 38 -41 20 -13 43 -29 50 -36 23 -22 29 -15 37 44 4 31 11 67 16
80 6 17 5 23 -4 21 -20 -5 -89 41 -81 54 4 7 3 8 -4 4 -6 -4 -22 -2 -34 5 -15
7 -20 8 -13 0z"/>
<path d="M2040 3354 c0 -8 5 -12 10 -9 6 4 8 11 5 16 -9 14 -15 11 -15 -7z"/>
<path d="M2331 3344 c0 -11 3 -14 6 -6 3 7 2 16 -1 19 -3 4 -6 -2 -5 -13z"/>
<path d="M2357 3325 c-15 -14 -34 -25 -42 -25 -29 0 -38 -39 -25 -101 7 -32
10 -66 6 -75 -5 -13 -4 -14 7 -6 8 7 18 8 22 4 5 -4 5 -2 2 4 -4 7 5 20 21 29
59 38 64 49 56 125 -3 39 -9 70 -13 70 -3 0 -19 -12 -34 -25z"/>
<path d="M2022 3320 c0 -14 2 -19 5 -12 2 6 2 18 0 25 -3 6 -5 1 -5 -13z"/>
<path d="M1990 3308 c0 -15 5 -30 10 -33 13 -8 13 25 0 45 -8 12 -10 9 -10
-12z"/>
<path d="M2267 3305 c-15 -14 -27 -28 -27 -30 0 -7 69 40 70 48 0 14 -15 7
-43 -18z"/>
<path d="M2018 3260 c-3 -16 -1 -30 4 -30 4 0 8 14 8 30 0 17 -2 30 -4 30 -2
0 -6 -13 -8 -30z"/>
<path d="M2251 3234 c0 -11 3 -14 6 -6 3 7 2 16 -1 19 -3 4 -6 -2 -5 -13z"/>
<path d="M2584 3235 c-12 -9 -14 -14 -6 -15 7 0 20 7 28 15 20 19 4 20 -22 0z"/>
<path d="M1397 3219 c-3 -9 -3 -46 -2 -83 2 -39 0 -64 -6 -61 -5 4 -9 2 -9 -4
0 -15 18 -23 22 -10 3 8 12 7 31 -6 15 -9 27 -14 27 -11 0 4 14 0 30 -9 17 -9
30 -12 31 -8 0 5 2 19 3 33 1 14 6 35 10 48 4 12 3 22 -2 22 -5 0 -13 17 -17
37 -4 25 -9 32 -15 23 -4 -7 -15 -10 -24 -7 -26 10 -18 25 17 30 l32 4 -37 1
c-20 1 -38 -3 -40 -10 -3 -7 -10 -8 -17 -3 -11 6 -8 11 9 20 22 12 22 12 -8
11 -19 -1 -33 -7 -35 -17z"/>
<path d="M1552 3220 c0 -14 2 -19 5 -12 2 6 2 18 0 25 -3 6 -5 1 -5 -13z"/>
<path d="M2146 3205 c-16 -24 -15 -25 3 -25 13 0 19 7 19 25 0 14 -2 25 -3 25
-2 0 -10 -11 -19 -25z"/>
<path d="M2203 3204 c0 -14 2 -21 6 -17 3 4 9 10 12 13 4 3 1 10 -6 17 -10 9
-12 6 -12 -13z"/>
<path d="M2440 3221 c0 -5 7 -11 15 -15 8 -3 15 -1 15 3 0 5 -7 11 -15 15 -8
3 -15 1 -15 -3z"/>
<path d="M1933 3195 c0 -8 4 -15 9 -15 4 0 8 4 8 9 0 6 -4 12 -8 15 -5 3 -9
-1 -9 -9z"/>
<path d="M2002 3205 c4 -4 2 -17 -4 -29 -6 -11 -7 -18 -3 -14 8 8 37 -17 33
-29 -2 -4 14 -33 35 -64 20 -31 37 -62 37 -68 0 -8 13 -11 38 -9 36 3 37 2 37
-32 0 -21 -6 -38 -15 -42 -13 -5 -12 -7 2 -7 9 -1 20 4 23 9 3 6 19 10 34 10
26 0 29 -4 33 -36 2 -19 1 -37 -4 -40 -4 -3 -2 -11 4 -18 9 -10 17 -10 29 -3
35 22 49 2 49 -68 0 -64 6 -75 27 -54 18 18 64 3 57 -19 -5 -13 -4 -14 4 -3 5
7 15 10 21 7 6 -4 11 0 11 9 0 11 9 7 30 -15 17 -17 27 -36 24 -42 -5 -7 -2
-8 5 -3 8 4 28 -9 55 -36 23 -24 62 -62 86 -85 25 -22 50 -49 57 -60 11 -19
11 -19 19 0 4 10 3 26 -3 35 -6 10 -7 25 -2 39 9 23 -5 32 -14 10 -4 -9 -6 -8
-6 3 -3 46 -79 195 -126 245 -156 166 -214 202 -440 269 -44 14 -55 20 -40 25
16 6 13 8 -13 13 -23 5 -33 13 -38 32 -4 15 -2 31 5 38 14 14 15 30 1 22 -5
-3 -20 -1 -32 6 -13 6 -20 8 -16 4z"/>
<path d="M2483 3195 c0 -8 4 -15 9 -15 4 0 8 4 8 9 0 6 -4 12 -8 15 -5 3 -9
-1 -9 -9z"/>
<path d="M1957 3167 c-3 -8 -1 -20 4 -28 6 -10 9 -7 9 14 0 29 -5 35 -13 14z"/>
<path d="M2210 3145 c0 -8 5 -15 10 -15 6 0 10 7 10 15 0 8 -4 15 -10 15 -5 0
-10 -7 -10 -15z"/>
<path d="M2392 3140 c0 -14 2 -19 5 -12 2 6 2 18 0 25 -3 6 -5 1 -5 -13z"/>
<path d="M2240 3143 c0 -5 11 -9 25 -9 14 -1 25 2 25 7 0 5 -11 9 -25 9 -14 0
-25 -3 -25 -7z"/>
<path d="M2370 3134 c0 -8 -4 -12 -10 -9 -5 3 -10 1 -10 -4 0 -6 7 -11 15 -11
8 0 15 9 15 20 0 11 -2 20 -5 20 -3 0 -5 -7 -5 -16z"/>
<path d="M1860 3099 c0 -5 5 -7 10 -4 6 3 10 8 10 11 0 2 -4 4 -10 4 -5 0 -10
-5 -10 -11z"/>
<path d="M1923 3099 c-13 -5 -23 -12 -23 -16 0 -5 -21 -14 -47 -21 -27 -7 -74
-21 -107 -32 -32 -11 -63 -17 -67 -14 -5 3 -9 1 -9 -4 0 -5 -30 -28 -67 -52
-73 -46 -193 -162 -218 -210 -9 -17 -20 -30 -25 -30 -6 0 -9 -3 -8 -7 3 -8
-25 -76 -41 -103 -5 -8 -17 -41 -26 -72 -9 -32 -21 -60 -26 -64 -5 -3 -9 -9
-9 -14 0 -21 40 10 154 122 112 109 124 118 161 119 l40 2 -35 8 c-28 6 -24 7
22 4 33 -2 60 1 64 7 4 5 7 29 8 51 2 56 11 67 48 64 l32 -2 -3 48 -3 48 99
-2 c54 -1 100 2 103 7 3 4 -22 8 -55 8 -54 1 -60 3 -63 24 -3 19 1 22 31 22
29 0 36 4 41 25 4 14 11 25 16 25 6 0 10 9 10 20 0 10 8 23 17 29 24 13 13 21
-14 10z"/>
<path d="M2137 3089 c7 -7 15 -10 18 -7 3 3 -2 9 -12 12 -14 6 -15 5 -6 -5z"/>
<path d="M2630 3091 c0 -5 5 -13 10 -16 6 -3 10 -2 10 4 0 5 -4 13 -10 16 -5
3 -10 2 -10 -4z"/>
<path d="M2198 3072 c19 -21 27 -20 19 3 -4 8 -13 15 -22 15 -13 0 -12 -3 3
-18z"/>
<path d="M2230 3060 c0 -6 4 -9 9 -6 5 4 12 1 14 -4 3 -6 4 -5 3 2 -3 15 -26
23 -26 8z"/>
<path d="M2275 3060 c-3 -5 -1 -10 4 -10 6 0 11 5 11 10 0 6 -2 10 -4 10 -3 0
-8 -4 -11 -10z"/>
<path d="M2621 3054 c0 -11 3 -14 6 -6 3 7 2 16 -1 19 -3 4 -6 -2 -5 -13z"/>
<path d="M2660 3060 c0 -5 5 -10 10 -10 6 0 10 5 10 10 0 6 -4 10 -10 10 -5 0
-10 -4 -10 -10z"/>
<path d="M1198 3044 c5 -11 7 -25 5 -31 -3 -7 0 -13 6 -13 5 0 13 -16 17 -35
8 -42 12 -45 67 -50 23 -1 51 -5 62 -7 14 -2 19 2 16 12 -2 8 -9 35 -14 59
-13 53 -34 67 -111 76 -55 7 -58 6 -48 -11z"/>
<path d="M2290 3040 c-9 -6 -10 -10 -3 -10 6 0 15 5 18 10 8 12 4 12 -15 0z"/>
<path d="M1911 3014 c0 -11 3 -14 6 -6 3 7 2 16 -1 19 -3 4 -6 -2 -5 -13z"/>
<path d="M2000 3016 c-41 -11 -43 -13 -20 -19 37 -10 110 -8 110 3 0 8 -33 32
-42 29 -2 -1 -23 -6 -48 -13z"/>
<path d="M2556 3005 c-9 -26 -7 -32 5 -12 6 10 9 21 6 23 -2 3 -7 -2 -11 -11z"/>
<path d="M1468 3003 c7 -3 16 -2 19 1 4 3 -2 6 -13 5 -11 0 -14 -3 -6 -6z"/>
<path d="M2573 2971 c1 -15 4 -17 14 -9 7 5 10 14 7 19 -10 16 -23 9 -21 -10z"/>
<path d="M2440 2959 c7 -11 14 -19 16 -16 7 7 -7 37 -17 37 -6 0 -5 -9 1 -21z"/>
<path d="M2535 2960 c3 -5 10 -10 16 -10 5 0 9 5 9 10 0 6 -7 10 -16 10 -8 0
-12 -4 -9 -10z"/>
<path d="M1990 2925 c0 -11 4 -15 8 -10 9 12 62 16 62 5 0 -5 9 -8 20 -7 11 1
20 5 20 10 0 5 9 7 19 4 10 -2 25 -1 32 4 16 10 13 10 -93 13 -62 1 -68 -1
-68 -19z"/>
<path d="M2590 2941 c0 -6 5 -13 10 -16 6 -3 10 1 10 9 0 9 -4 16 -10 16 -5 0
-10 -4 -10 -9z"/>
<path d="M1480 2931 c0 -6 4 -13 10 -16 6 -3 7 1 4 9 -7 18 -14 21 -14 7z"/>
<path d="M2595 2880 c-3 -5 -1 -10 4 -10 6 0 11 5 11 10 0 6 -2 10 -4 10 -3 0
-8 -4 -11 -10z"/>
<path d="M2745 2880 c3 -5 11 -10 16 -10 6 0 7 5 4 10 -3 6 -11 10 -16 10 -6
0 -7 -4 -4 -10z"/>
<path d="M1158 2865 c-2 -3 -29 -7 -59 -11 -29 -3 -56 -8 -58 -10 -2 -2 4 -15
13 -29 10 -15 15 -33 12 -41 -3 -8 -2 -12 4 -9 5 3 16 -5 24 -18 14 -20 22
-23 73 -19 32 2 62 7 67 12 4 4 1 21 -8 37 -8 15 -21 40 -28 55 -11 26 -31 42
-40 33z"/>
<path d="M1990 2830 c0 -22 5 -40 10 -40 6 0 10 5 10 10 0 6 7 10 15 10 8 0
15 5 15 11 0 6 9 9 20 6 10 -3 21 0 24 7 2 6 5 1 5 -11 1 -12 6 -25 13 -29 7
-4 8 -3 4 4 -4 7 -1 12 8 12 10 0 13 6 10 15 -4 8 -1 15 5 15 6 0 11 -4 11 -8
0 -5 10 -8 23 -6 12 1 28 3 35 3 23 2 12 21 -12 21 -13 0 -27 6 -29 13 -4 10
-6 10 -6 0 -1 -17 -51 -17 -51 -1 0 9 -3 9 -12 0 -14 -14 -78 -16 -78 -2 0 6
-4 10 -10 10 -5 0 -10 -18 -10 -40z"/>
<path d="M2958 2863 c12 -2 32 -2 45 0 12 2 2 4 -23 4 -25 0 -35 -2 -22 -4z"/>
<path d="M1802 2849 c-13 -5 -28 -7 -33 -3 -5 3 -9 0 -9 -5 0 -14 57 -14 65 0
10 15 3 18 -23 8z"/>
<path d="M1840 2838 c0 -19 2 -20 10 -8 13 19 13 30 0 30 -5 0 -10 -10 -10
-22z"/>
<path d="M2576 2845 c4 -8 8 -15 10 -15 2 0 4 7 4 15 0 8 -4 15 -10 15 -5 0
-7 -7 -4 -15z"/>
<path d="M2670 2850 c0 -5 5 -10 11 -10 5 0 7 5 4 10 -3 6 -8 10 -11 10 -2 0
-4 -4 -4 -10z"/>
<path d="M1940 2839 c0 -5 5 -7 10 -4 6 3 10 8 10 11 0 2 -4 4 -10 4 -5 0 -10
-5 -10 -11z"/>
<path d="M2220 2832 c0 -11 -8 -23 -17 -25 -14 -4 -15 -5 -2 -6 8 0 23 5 33
12 16 12 16 14 2 26 -14 12 -16 11 -16 -7z"/>
<path d="M2737 2834 c-4 -4 -7 -14 -7 -23 0 -11 3 -12 11 -4 6 6 10 16 7 23
-2 6 -7 8 -11 4z"/>
<path d="M1331 2814 c0 -11 3 -14 6 -6 3 7 2 16 -1 19 -3 4 -6 -2 -5 -13z"/>
<path d="M2595 2799 c4 -6 13 -8 21 -5 17 7 18 -6 2 -23 -11 -11 -10 -13 2 -9
24 7 18 41 -8 45 -15 2 -21 -1 -17 -8z"/>
<path d="M2705 2800 c-3 -5 -1 -10 4 -10 6 0 11 5 11 10 0 6 -2 10 -4 10 -3 0
-8 -4 -11 -10z"/>
<path d="M1045 2789 c-4 -6 -5 -12 -2 -15 2 -3 7 2 10 11 7 17 1 20 -8 4z"/>
<path d="M2738 2765 c-14 -19 -15 -25 -4 -34 11 -9 15 -5 20 20 8 40 5 43 -16
14z"/>
<path d="M1250 2759 c0 -5 5 -7 10 -4 6 3 10 8 10 11 0 2 -4 4 -10 4 -5 0 -10
-5 -10 -11z"/>
<path d="M2000 2743 c0 -7 -11 -13 -24 -13 -14 0 -28 -5 -32 -11 -5 -8 1 -10
19 -5 15 3 29 1 32 -5 4 -6 19 -7 37 -4 48 11 207 12 211 1 4 -13 37 0 37 15
0 7 -15 10 -40 7 -31 -3 -40 0 -41 12 0 10 -2 11 -6 2 -2 -6 -9 -10 -14 -6 -5
3 -9 2 -9 -3 0 -12 -134 -3 -142 10 -5 8 -8 7 -8 -3 0 -13 -1 -13 -10 0 -6 10
-10 11 -10 3z"/>
<path d="M2300 2740 c-12 -7 -12 -12 -3 -21 15 -15 26 -7 21 15 -2 11 -7 13
-18 6z"/>
<path d="M1245 2730 c-3 -5 -1 -10 4 -10 6 0 11 5 11 10 0 6 -2 10 -4 10 -3 0
-8 -4 -11 -10z"/>
<path d="M1810 2730 c0 -5 14 -10 32 -10 36 0 35 4 -4 14 -17 4 -28 2 -28 -4z"/>
<path d="M2646 2725 c7 -16 44 -21 44 -5 0 5 -7 7 -15 4 -8 -4 -15 -1 -15 5 0
6 -4 11 -10 11 -5 0 -7 -7 -4 -15z"/>
<path d="M1723 2718 c18 -6 32 -7 38 -1 6 6 -4 10 -28 10 -38 1 -38 1 -10 -9z"/>
<path d="M1208 2713 c7 -3 16 -2 19 1 4 3 -2 6 -13 5 -11 0 -14 -3 -6 -6z"/>
<path d="M2818 2693 c7 -3 16 -2 19 1 4 3 -2 6 -13 5 -11 0 -14 -3 -6 -6z"/>
<path d="M2890 2689 c0 -5 5 -7 10 -4 6 3 10 8 10 11 0 2 -4 4 -10 4 -5 0 -10
-5 -10 -11z"/>
<path d="M1575 2680 c-3 -5 1 -10 10 -10 9 0 13 5 10 10 -3 6 -8 10 -10 10 -2
0 -7 -4 -10 -10z"/>
<path d="M2280 2680 c0 -5 5 -10 10 -10 6 0 10 5 10 10 0 6 -4 10 -10 10 -5 0
-10 -4 -10 -10z"/>
<path d="M2440 2670 c0 -5 5 -10 11 -10 5 0 7 5 4 10 -3 6 -8 10 -11 10 -2 0
-4 -4 -4 -10z"/>
<path d="M2870 2675 c0 -6 6 -17 13 -24 10 -11 10 -13 0 -7 -7 4 -13 2 -13 -4
0 -6 8 -10 18 -8 17 3 25 29 8 27 -5 0 -13 5 -17 13 -5 7 -9 8 -9 3z"/>
<path d="M2735 2660 c-3 -5 -2 -10 4 -10 5 0 13 5 16 10 3 6 2 10 -4 10 -5 0
-13 -4 -16 -10z"/>
<path d="M2920 2660 c0 -5 5 -10 10 -10 6 0 10 5 10 10 0 6 -4 10 -10 10 -5 0
-10 -4 -10 -10z"/>
<path d="M1996 2645 c-3 -8 -1 -15 4 -15 13 0 22 18 11 24 -5 3 -11 -1 -15 -9z"/>
<path d="M2950 2650 c0 -5 7 -10 16 -10 8 0 12 5 9 10 -3 6 -10 10 -16 10 -5
0 -9 -4 -9 -10z"/>
<path d="M1025 2627 c-69 -15 -67 -14 -48 -44 45 -68 100 -102 118 -73 3 6 16
10 29 10 12 0 30 6 40 13 16 11 14 16 -24 57 -45 48 -54 51 -115 37z"/>
<path d="M1138 2633 c7 -3 16 -2 19 1 4 3 -2 6 -13 5 -11 0 -14 -3 -6 -6z"/>
<path d="M2020 2620 l-25 -8 27 -1 c15 -1 30 4 33 9 7 11 0 11 -35 0z"/>
<path d="M2500 2610 c0 -5 5 -10 10 -10 6 0 10 5 10 10 0 6 -4 10 -10 10 -5 0
-10 -4 -10 -10z"/>
<path d="M2838 2611 c-11 -4 -14 -11 -9 -19 6 -10 10 -10 21 3 15 19 11 25
-12 16z"/>
<path d="M3055 2610 c3 -5 12 -10 20 -10 8 0 17 5 20 10 4 6 -5 10 -20 10 -15
0 -24 -4 -20 -10z"/>
<path d="M2547 2583 c8 -22 23 -33 43 -32 8 0 5 4 -7 9 -13 5 -23 16 -23 25 0
8 -4 15 -10 15 -5 0 -6 -8 -3 -17z"/>
<path d="M2790 2582 c0 -5 7 -15 15 -22 8 -7 15 -8 15 -2 0 5 -7 15 -15 22 -8
7 -15 8 -15 2z"/>
<path d="M945 2561 c-3 -5 -2 -12 3 -15 5 -3 9 1 9 9 0 17 -3 19 -12 6z"/>
<path d="M1970 2553 c-46 -18 -53 -81 -14 -112 32 -25 52 -26 82 -5 16 11 22
25 22 54 0 54 -40 82 -90 63z"/>
<path d="M2110 2543 c0 -13 5 -23 10 -23 13 0 13 11 0 30 -8 12 -10 11 -10 -7z"/>
<path d="M2600 2509 c7 -11 14 -18 17 -15 8 8 -5 36 -17 36 -7 0 -7 -6 0 -21z"/>
<path d="M2268 2513 c7 -3 16 -2 19 1 4 3 -2 6 -13 5 -11 0 -14 -3 -6 -6z"/>
<path d="M2340 2510 c20 -13 53 -13 45 0 -3 6 -18 10 -33 10 -21 0 -24 -2 -12
-10z"/>
<path d="M2830 2491 c13 -9 13 -11 1 -11 -11 0 -9 -4 5 -15 24 -18 51 -19 51
-2 0 9 -9 12 -24 9 -16 -3 -23 0 -21 8 2 7 -4 15 -12 17 -13 4 -13 3 0 -6z"/>
<path d="M2742 2459 c-2 -19 2 -28 8 -24 12 7 14 55 2 55 -4 0 -9 -14 -10 -31z"/>
<path d="M2775 2480 c3 -5 12 -7 20 -3 21 7 19 13 -6 13 -11 0 -18 -4 -14 -10z"/>
<path d="M2142 2460 c0 -14 2 -19 5 -12 2 6 2 18 0 25 -3 6 -5 1 -5 -13z"/>
<path d="M2163 2445 c1 -19 5 -35 9 -35 11 0 10 57 -1 64 -5 3 -9 -10 -8 -29z"/>
<path d="M2210 2471 c0 -6 5 -13 10 -16 6 -3 10 1 10 9 0 9 -4 16 -10 16 -5 0
-10 -4 -10 -9z"/>
<path d="M2900 2471 c0 -6 5 -13 10 -16 6 -3 10 1 10 9 0 9 -4 16 -10 16 -5 0
-10 -4 -10 -9z"/>
<path d="M2935 2460 c-3 -5 -1 -10 4 -10 6 0 11 5 11 10 0 6 -2 10 -4 10 -3 0
-8 -4 -11 -10z"/>
<path d="M1638 2449 c-18 -10 -24 -45 -10 -66 4 -6 19 -14 33 -18 21 -5 30 -2
43 16 20 29 20 43 0 63 -18 18 -41 20 -66 5z"/>
<path d="M2110 2440 c0 -11 4 -20 9 -20 5 0 7 9 4 20 -3 11 -7 20 -9 20 -2 0
-4 -9 -4 -20z"/>
<path d="M2192 2435 c0 -16 2 -22 5 -12 2 9 2 23 0 30 -3 6 -5 -1 -5 -18z"/>
<path d="M2284 2435 c-15 -23 -15 -27 0 -51 23 -33 64 -30 85 8 14 24 14 28
-3 47 -26 29 -62 27 -82 -4z"/>
<path d="M2421 2434 c0 -11 3 -14 6 -6 3 7 2 16 -1 19 -3 4 -6 -2 -5 -13z"/>
<path d="M2561 2424 c0 -11 3 -14 6 -6 3 7 2 16 -1 19 -3 4 -6 -2 -5 -13z"/>
<path d="M2952 2426 c7 -8 16 -12 21 -9 11 7 -2 23 -19 23 -12 0 -12 -2 -2
-14z"/>
<path d="M2606 2421 c-4 -7 -5 -15 -2 -18 9 -9 19 4 14 18 -4 11 -6 11 -12 0z"/>
<path d="M1195 2399 c-4 -6 -5 -12 -2 -15 2 -3 7 2 10 11 7 17 1 20 -8 4z"/>
<path d="M2673 2384 c28 -30 32 -30 32 0 0 20 -5 24 -27 24 l-27 -1 22 -23z"/>
<path d="M2835 2400 c3 -5 8 -10 11 -10 2 0 4 5 4 10 0 6 -5 10 -11 10 -5 0
-7 -4 -4 -10z"/>
<path d="M950 2370 c0 -5 5 -10 10 -10 6 0 10 5 10 10 0 6 -4 10 -10 10 -5 0
-10 -4 -10 -10z"/>
<path d="M1995 2360 c3 -5 11 -10 16 -10 6 0 7 5 4 10 -3 6 -11 10 -16 10 -6
0 -7 -4 -4 -10z"/>
<path d="M1340 2330 c-8 -15 -6 -24 10 -40 11 -11 26 -17 35 -14 17 7 30 47
20 63 -11 18 -54 12 -65 -9z"/>
<path d="M2591 2336 c-18 -21 3 -56 33 -56 26 0 40 23 31 51 -8 23 -47 25 -64
5z"/>
<path d="M2751 2338 c-1 -10 -6 -18 -12 -18 -5 0 -7 -5 -3 -11 9 -15 28 16 20
34 -2 7 -5 4 -5 -5z"/>
<path d="M1990 2336 c0 -12 31 -76 40 -81 6 -4 8 -11 5 -16 -4 -5 -1 -9 4 -9
6 0 11 -7 11 -16 0 -10 6 -14 14 -11 10 4 13 1 10 -8 -4 -10 0 -12 15 -8 17 4
20 2 15 -11 -4 -11 -1 -16 11 -16 12 0 15 5 10 20 -7 24 7 26 25 5 8 -9 28
-15 54 -14 l41 2 -35 7 -35 7 37 2 c20 0 38 -4 40 -11 5 -15 28 -1 28 18 0 8
-9 14 -20 14 -11 0 -20 5 -20 10 0 6 7 10 16 10 8 0 12 5 9 10 -4 6 -17 3 -35
-10 -30 -21 -65 -26 -75 -10 -3 6 1 10 10 10 9 0 14 4 11 9 -3 5 -15 7 -26 4
-11 -3 -17 -9 -14 -14 3 -5 -2 -9 -10 -9 -9 0 -16 5 -16 10 0 6 -5 10 -10 10
-13 0 -90 79 -90 92 0 4 -4 8 -10 8 -5 0 -10 -2 -10 -4z"/>
<path d="M2267 2319 c7 -7 15 -10 18 -7 3 3 -2 9 -12 12 -14 6 -15 5 -6 -5z"/>
<path d="M923 2313 c9 -2 23 -2 30 0 6 3 -1 5 -18 5 -16 0 -22 -2 -12 -5z"/>
<path d="M2310 2289 c0 -5 5 -7 10 -4 6 3 10 8 10 11 0 2 -4 4 -10 4 -5 0 -10
-5 -10 -11z"/>
<path d="M2994 2279 c-19 -22 -19 -22 4 -10 12 7 27 9 32 6 6 -3 10 -2 10 4 0
5 8 12 18 14 9 3 3 5 -14 6 -20 1 -38 -7 -50 -20z"/>
<path d="M955 2280 c3 -5 8 -10 11 -10 2 0 4 5 4 10 0 6 -5 10 -11 10 -5 0 -7
-4 -4 -10z"/>
<path d="M1018 2273 c7 -3 16 -2 19 1 4 3 -2 6 -13 5 -11 0 -14 -3 -6 -6z"/>
<path d="M2515 2270 c-3 -5 3 -10 14 -10 10 0 22 -6 24 -12 4 -8 6 -7 6 3 1 9
-6 20 -15 23 -21 8 -22 8 -29 -4z"/>
<path d="M1935 2251 c-3 -6 -13 -11 -21 -11 -8 0 -23 -9 -34 -20 -12 -12 -25
-18 -30 -15 -6 4 -10 1 -10 -4 0 -16 42 -13 66 4 12 8 25 11 29 7 5 -4 5 1 2
10 -3 9 -1 19 6 21 7 2 9 7 6 11 -4 4 -10 3 -14 -3z"/>
<path d="M2290 2251 c0 -6 5 -13 10 -16 6 -4 8 -9 6 -13 -2 -4 2 -15 9 -25 11
-15 24 -17 80 -13 74 4 78 6 69 29 -5 14 -9 14 -39 1 -31 -13 -34 -13 -28 2 5
14 1 16 -18 12 -13 -3 -32 -9 -41 -13 -11 -4 -18 -3 -18 4 0 6 5 11 11 11 5 0
7 5 4 10 -4 6 -11 8 -16 5 -5 -4 -9 -1 -9 4 0 6 -4 11 -10 11 -5 0 -10 -4 -10
-9z"/>
<path d="M1969 2210 c-18 -22 -40 -40 -49 -40 -8 0 -22 -5 -30 -11 -12 -8 -10
-9 8 -4 21 6 23 5 13 -14 -12 -21 -13 -20 44 -82 8 -9 15 -23 15 -32 0 -8 5
-17 12 -19 13 -5 68 43 68 59 0 5 9 18 20 28 11 10 20 21 20 26 0 12 -53 89
-62 89 -4 0 -8 6 -8 14 0 30 -19 25 -51 -14z"/>
<path d="M2680 2240 c-23 -7 -23 -8 -3 -9 12 -1 25 4 28 9 3 6 5 10 3 9 -2 -1
-14 -5 -28 -9z"/>
<path d="M2910 2240 c-13 -8 -12 -10 3 -10 9 0 17 5 17 10 0 12 -1 12 -20 0z"/>
<path d="M1760 2212 c0 -13 53 -23 65 -11 5 5 1 9 -12 9 -12 0 -28 3 -37 6 -9
3 -16 2 -16 -4z"/>
<path d="M1708 2203 c6 -2 18 -2 25 0 6 3 1 5 -13 5 -14 0 -19 -2 -12 -5z"/>
<path d="M2696 2201 c-4 -7 -5 -15 -2 -18 9 -9 19 4 14 18 -4 11 -6 11 -12 0z"/>
<path d="M1464 2166 c-10 -25 0 -38 13 -17 8 13 9 22 3 26 -6 4 -13 -1 -16 -9z"/>
<path d="M986 2145 c4 -8 8 -15 10 -15 2 0 4 7 4 15 0 8 -4 15 -10 15 -5 0 -7
-7 -4 -15z"/>
<path d="M1441 2144 c0 -11 3 -14 6 -6 3 7 2 16 -1 19 -3 4 -6 -2 -5 -13z"/>
<path d="M2605 2150 c4 -6 11 -8 16 -5 14 9 11 15 -7 15 -8 0 -12 -5 -9 -10z"/>
<path d="M2495 2120 c-3 -5 1 -10 10 -10 9 0 13 5 10 10 -3 6 -8 10 -10 10 -2
0 -7 -4 -10 -10z"/>
<path d="M1420 2110 c0 -5 5 -10 10 -10 6 0 10 5 10 10 0 6 -4 10 -10 10 -5 0
-10 -4 -10 -10z"/>
<path d="M2260 2105 c0 -8 4 -15 10 -15 5 0 7 7 4 15 -4 8 -8 15 -10 15 -2 0
-4 -7 -4 -15z"/>
<path d="M2410 2110 c0 -5 5 -10 11 -10 5 0 7 5 4 10 -3 6 -8 10 -11 10 -2 0
-4 -4 -4 -10z"/>
<path d="M2185 2100 c3 -5 8 -10 11 -10 2 0 4 5 4 10 0 6 -5 10 -11 10 -5 0
-7 -4 -4 -10z"/>
<path d="M2150 2090 c0 -5 5 -10 11 -10 5 0 7 5 4 10 -3 6 -8 10 -11 10 -2 0
-4 -4 -4 -10z"/>
<path d="M2348 2093 c6 -2 18 -2 25 0 6 3 1 5 -13 5 -14 0 -19 -2 -12 -5z"/>
<path d="M2447 2089 c7 -7 15 -10 18 -7 3 3 -2 9 -12 12 -14 6 -15 5 -6 -5z"/>
<path d="M1398 2073 c7 -3 16 -2 19 1 4 3 -2 6 -13 5 -11 0 -14 -3 -6 -6z"/>
<path d="M1366 2044 c-18 -17 -21 -40 -6 -49 5 -3 12 6 16 20 4 18 11 24 22
20 12 -4 13 -3 2 10 -15 19 -15 19 -34 -1z"/>
<path d="M3045 2050 c-3 -5 -2 -10 4 -10 5 0 13 5 16 10 3 6 2 10 -4 10 -5 0
-13 -4 -16 -10z"/>
<path d="M2485 2030 c3 -5 10 -10 16 -10 5 0 9 5 9 10 0 6 -7 10 -16 10 -8 0
-12 -4 -9 -10z"/>
<path d="M2722 1940 c0 -14 2 -19 5 -12 2 6 2 18 0 25 -3 6 -5 1 -5 -13z"/>
<path d="M2636 1925 c-3 -8 -1 -15 4 -15 6 0 10 7 10 15 0 8 -2 15 -4 15 -2 0
-6 -7 -10 -15z"/>
<path d="M2670 1851 c0 -5 7 -12 16 -15 22 -9 24 -8 24 9 0 8 -9 15 -20 15
-11 0 -20 -4 -20 -9z"/>
<path d="M2610 1838 c0 -8 7 -15 15 -15 18 0 15 19 -3 25 -7 2 -12 -3 -12 -10z"/>
<path d="M2627 1770 c3 -11 9 -17 15 -14 5 3 4 12 -3 20 -16 19 -18 18 -12 -6z"/>
<path d="M2685 1770 c-3 -5 -1 -10 4 -10 6 0 11 5 11 10 0 6 -2 10 -4 10 -3 0
-8 -4 -11 -10z"/>
<path d="M1170 1722 c0 -4 9 -8 19 -8 11 0 17 4 15 8 -3 4 -12 8 -20 8 -8 0
-14 -4 -14 -8z"/>
<path d="M2660 1560 c0 -5 5 -10 11 -10 5 0 7 5 4 10 -3 6 -8 10 -11 10 -2 0
-4 -4 -4 -10z"/>
<path d="M1956 1451 c-4 -7 -5 -15 -2 -18 9 -9 19 4 14 18 -4 11 -6 11 -12 0z"/>
<path d="M1220 1394 c0 -8 5 -12 10 -9 6 3 10 10 10 16 0 5 -4 9 -10 9 -5 0
-10 -7 -10 -16z"/>
<path d="M1311 1151 c-8 -6 -9 -11 -3 -15 6 -3 14 -1 17 5 9 14 2 20 -14 10z"/>
<path d="M1228 1099 c-22 -12 -24 -62 -3 -79 8 -7 30 -10 49 -8 29 3 36 0 39
-17 2 -11 2 5 -1 35 -2 30 -7 58 -11 62 -12 13 -56 18 -73 7z"/>
<path d="M1710 1080 c-8 -5 -12 -12 -9 -15 4 -3 12 1 19 10 14 17 11 19 -10 5z"/>
<path d="M2825 2040 c3 -5 10 -10 16 -10 5 0 9 5 9 10 0 6 -7 10 -16 10 -8 0
-12 -4 -9 -10z"/>
<path d="M1785 2021 c-6 -6 -30 -11 -55 -14 -42 -3 -41 -4 13 -5 45 -2 57 1
57 13 0 17 -3 18 -15 6z"/>
<path d="M2223 1906 c26 -20 7 -63 -30 -69 l-28 -4 31 -2 c38 -1 54 14 54 54
0 25 -4 31 -22 32 -21 2 -22 1 -5 -11z"/>
<path d="M2027 1833 c18 -2 50 -2 70 0 21 2 7 4 -32 4 -38 0 -55 -2 -38 -4z"/>
<path d="M2235 1820 c-3 -5 -1 -10 4 -10 6 0 11 5 11 10 0 6 -2 10 -4 10 -3 0
-8 -4 -11 -10z"/>
<path d="M2416 1805 c-16 -12 -17 -15 -4 -15 8 0 21 7 28 15 16 19 1 19 -24 0z"/>
<path d="M2241 1774 c0 -11 3 -14 6 -6 3 7 2 16 -1 19 -3 4 -6 -2 -5 -13z"/>
<path d="M2445 1770 c3 -5 8 -10 11 -10 2 0 4 5 4 10 0 6 -5 10 -11 10 -5 0
-7 -4 -4 -10z"/>
<path d="M2265 1760 c-7 -12 2 -12 30 0 19 8 19 9 -2 9 -12 1 -25 -3 -28 -9z"/>
<path d="M1996 1732 c-2 -4 -1 -14 4 -22 7 -11 12 -12 21 -3 6 6 8 16 5 22 -8
13 -23 14 -30 3z"/>
<path d="M2050 1729 c0 -6 6 -9 14 -6 8 3 22 -1 33 -8 22 -17 33 -19 33 -5 0
6 -7 10 -16 10 -8 0 -12 5 -9 10 4 6 -7 10 -24 10 -17 0 -31 -5 -31 -11z"/>
<path d="M2045 1690 c-3 -5 -2 -10 4 -10 5 0 13 5 16 10 3 6 2 10 -4 10 -5 0
-13 -4 -16 -10z"/>
<path d="M1990 1680 c0 -5 9 -10 20 -10 11 0 20 5 20 10 0 6 -9 10 -20 10 -11
0 -20 -4 -20 -10z"/>
<path d="M2898 1933 c-3 -13 -2 -26 4 -29 14 -9 16 -2 8 26 -6 25 -6 25 -12 3z"/>
<path d="M2870 1799 c0 -5 9 -9 20 -9 11 0 20 4 20 8 0 4 -9 8 -20 9 -11 1
-20 -2 -20 -8z"/>
<path d="M2796 1725 c-9 -26 -7 -32 5 -12 6 10 9 21 6 23 -2 3 -7 -2 -11 -11z"/>
<path d="M2817 1706 c-9 -24 -9 -28 3 -21 6 3 10 1 10 -6 0 -7 2 -10 5 -7 3 3
2 15 -3 28 -8 20 -9 21 -15 6z"/>
<path d="M2840 1644 c0 -16 -2 -17 -10 -4 -8 13 -10 12 -10 -2 0 -10 5 -18 10
-18 13 0 25 28 16 37 -3 4 -6 -2 -6 -13z"/>
<path d="M2800 1595 c-7 -9 -11 -17 -9 -20 3 -2 10 5 17 15 14 24 10 26 -8 5z"/>
<path d="M2470 1310 c-17 -13 -20 -20 -10 -20 22 0 43 16 39 28 -3 7 -14 3
-29 -8z"/>
<path d="M2440 1250 c0 -5 9 -10 20 -10 11 0 20 5 20 10 0 6 -9 10 -20 10 -11
0 -20 -4 -20 -10z"/>
<path d="M2411 1184 c0 -11 3 -14 6 -6 3 7 2 16 -1 19 -3 4 -6 -2 -5 -13z"/>
<path d="M2430 1190 c0 -5 5 -10 10 -10 6 0 10 5 10 10 0 6 -4 10 -10 10 -5 0
-10 -4 -10 -10z"/>
<path d="M2570 1160 c0 -5 5 -10 10 -10 6 0 10 5 10 10 0 6 -4 10 -10 10 -5 0
-10 -4 -10 -10z"/>
<path d="M2401 1134 c0 -11 3 -14 6 -6 3 7 2 16 -1 19 -3 4 -6 -2 -5 -13z"/>
<path d="M2420 1124 c0 -14 -4 -23 -10 -19 -5 3 -10 1 -10 -5 0 -7 7 -9 16 -6
9 3 18 6 20 6 2 0 4 11 4 25 0 14 -4 25 -10 25 -5 0 -10 -12 -10 -26z"/>
<path d="M2301 1111 c-8 -5 -9 -11 -3 -15 5 -3 12 1 16 9 6 17 6 18 -13 6z"/>
<path d="M2683 1098 c-26 -12 -28 -21 -13 -49 8 -14 7 -19 -3 -19 -8 0 -14 -6
-14 -14 0 -23 106 -15 123 9 43 59 -21 108 -93 73z"/>
<path d="M2260 1090 c0 -5 5 -10 11 -10 5 0 7 5 4 10 -3 6 -8 10 -11 10 -2 0
-4 -4 -4 -10z"/>
<path d="M2346 1061 c-4 -7 -5 -15 -2 -18 9 -9 19 4 14 18 -4 11 -6 11 -12 0z"/>
<path d="M2151 606 c-9 -10 -9 -16 -1 -21 17 -10 37 12 24 25 -8 8 -15 6 -23
-4z"/>
<path d="M2001 574 c0 -11 3 -14 6 -6 3 7 2 16 -1 19 -3 4 -6 -2 -5 -13z"/>
<path d="M2255 560 c-3 -5 1 -10 10 -10 9 0 13 5 10 10 -3 6 -8 10 -10 10 -2
0 -7 -4 -10 -10z"/>
<path d="M2097 489 c-3 -13 -1 -19 6 -16 15 5 22 37 9 37 -5 0 -12 -9 -15 -21z"/>
</g>
</svg>
